# xmcd
#
# Track frame offsets:
#	150
#	12493
#	26170
#	43790
#	60030
#	75534
#	95134
#	108417
#	125784
#	145644
#	158452
#	174232
#	188045
#	202795
#	212898
#	231666
#	260447
#
# Disc length: 3654 seconds
#
# Revision: 1
# Processed by: cddbd v1.5.1PL0 Copyright (c) Steve Scherf et al.
# Submitted via: EasyCDDAExtractor 8.0.2.1
#
DISCID=e30e4411
DTITLE=Alice Cooper - PNC Arena Holmdel 29-08-05 Disc 1
DYEAR=2005
DGENRE=Hard Rock
TTITLE0=Department Of Youth
TTITLE1=No More Mr Nice Guy
TTITLE2=Dirty Diamonds
TTITLE3=Billion Dollar Babies
TTITLE4=Be My Lover
TTITLE5=Lost In America
TTITLE6=I Never Cry
TTITLE7=Woman Of Mass Distraction
TTITLE8=Eighteen
TTITLE9=Between High School And Old School
TTITLE10=Sunset Babies (All Got Rabies)
TTITLE11=Is It My Body
TTITLE12=Go To Hell
TTITLE13=Black Widow
TTITLE14=Drum Solo
TTITLE15=Gimme - Feed My Frankenstein
TTITLE16=Welcome To My Nightmare
EXTD=
EXTT0=
EXTT1=
EXTT2=
EXTT3=
EXTT4=
EXTT5=
EXTT6=
EXTT7=
EXTT8=
EXTT9=
EXTT10=
EXTT11=
EXTT12=
EXTT13=
EXTT14=
EXTT15=
EXTT16=
PLAYORDER=
